<?xml version="1.0" encoding="UTF-8" standalone="no"?>
<!DOCTYPE svg PUBLIC "-//W3C//DTD SVG 1.1//EN"
 "http://www.w3.org/Graphics/SVG/1.1/DTD/svg11.dtd">
<!-- Generated by graphviz version 12.1.1 (20240910.0053)
 -->
<!-- Title: INFRA Pages: 1 -->
<svg width="138pt" height="80pt"
 viewBox="0.00 0.00 138.37 80.00" xmlns="http://www.w3.org/2000/svg" xmlns:xlink="http://www.w3.org/1999/xlink">
<g id="graph0" class="graph" transform="scale(1 1) rotate(0) translate(4 76)">
<title>INFRA</title>
<polygon fill="white" stroke="none" points="-4,4 -4,-76 134.37,-76 134.37,4 -4,4"/>
<!-- baseball&#45;stats -->
<g id="node1" class="node">
<title>baseball&#45;stats</title>
<path fill="#b7e0ff" stroke="black" stroke-width="2" d="M118.37,-72C118.37,-72 12,-72 12,-72 6,-72 0,-66 0,-60 0,-60 0,-12 0,-12 0,-6 6,0 12,0 12,0 118.37,0 118.37,0 124.37,0 130.37,-6 130.37,-12 130.37,-12 130.37,-60 130.37,-60 130.37,-66 124.37,-72 118.37,-72"/>
<text text-anchor="middle" x="65.19" y="-40.2" font-family="Arial" font-size="14.00">baseball&#45;stats</text>
<text text-anchor="middle" x="65.19" y="-23.4" font-family="Arial" font-size="14.00">(DockerContainer)</text>
</g>
</g>
</svg>
